<svg width="841" height="649" viewBox="0 0 841 649" fill="none" xmlns="http://www.w3.org/2000/svg">
<path d="M127.335 349.415H180.335C167.335 311.615 190.035 280.016 228.935 275.816C253.135 273.216 301.535 273.816 326.235 275.716C369.035 279.016 393.235 306.816 380.635 349.516H716.335C702.835 256.916 820.735 226.315 840.235 321.415L838.735 635.415C836.235 642.415 830.835 645.715 823.635 646.815C807.535 649.315 752.035 649.216 735.335 647.116C727.135 646.116 716.335 639.615 716.335 630.815V570.415H127.335V630.815C127.335 638.115 118.035 645.715 110.935 646.815C94.8353 649.415 39.7353 649.015 22.7353 647.015C8.93529 645.415 3.43528 639.015 3.53528 625.015C12.4353 471.515 -7.76472 305.616 3.53528 153.516C6.63528 111.716 35.2353 83.5155 78.6353 90.5155C101.735 94.2155 127.435 124.616 127.435 147.716V349.415H127.335ZM36.0353 138.816V614.415H94.9353V548.116C94.9353 540.816 116.935 538.116 122.835 537.716C317.435 524.116 527.635 548.216 723.835 537.716C729.235 536.416 748.735 543.316 748.735 548.116V614.415H807.635V315.516C807.635 314.716 801.335 303.615 799.635 302.115C783.235 287.615 758.635 294.015 750.035 313.915L748.835 477.716C748.835 484.916 743.935 490.216 737.735 493.116H105.735C99.5353 490.116 94.6353 484.916 94.6353 477.716L94.1353 142.415C88.2353 121.815 64.2353 112.816 46.5353 126.016C44.6353 127.416 36.0353 137.816 35.8353 138.816H36.0353ZM223.735 308.816C201.635 313.716 202.035 345.316 223.135 349.316C235.935 351.716 325.035 351.716 337.835 349.316C357.935 345.516 360.435 312.316 334.835 308.316C319.635 305.916 237.535 305.716 223.735 308.816ZM716.335 381.816H127.335V461.316H716.335V381.816Z" fill="black"/>
<path d="M402.735 72.5154C417.735 67.9154 391.035 -1.18455 422.935 0.0154476C449.535 1.01545 428.935 54.8154 439.335 71.3154C450.135 73.1154 499.035 70.0154 503.835 73.0154C508.635 76.0154 511.235 95.7154 501.435 100.515C491.635 105.315 436.635 97.3154 436.635 106.415V165.315C436.635 174.915 407.135 174.915 407.135 165.315V106.415C407.135 97.4154 351.935 105.215 342.335 100.515C332.735 95.8154 337.835 72.5154 339.435 72.5154C352.435 72.5154 394.135 75.1154 402.735 72.5154Z" fill="black"/>
</svg>
